/* XPM */
static char * menu5_xpm[] = {
"48 48 121 2",
"  	c None",
". 	c #9B9B9B",
"+ 	c #B9B9B9",
"@ 	c #C1C1C1",
"# 	c #C3C3C3",
"$ 	c #C4C4C4",
"% 	c #9C9C9C",
"& 	c #8F8F8F",
"* 	c #A6A6A6",
"= 	c #9E9E9E",
"- 	c #999999",
"; 	c #A3A3A3",
"> 	c #A2A2A2",
", 	c #B1B1B1",
"' 	c #8A8A8A",
") 	c #ADADAD",
"! 	c #9A9A9A",
"~ 	c #A8A8A8",
"{ 	c #959595",
"] 	c #A9A9A9",
"^ 	c #929292",
"/ 	c #A1A1A1",
"( 	c #949494",
"_ 	c #BFBFBF",
": 	c #B3B3B3",
"< 	c #8E8E8E",
"[ 	c #797979",
"} 	c #909090",
"| 	c #E2E2E2",
"1 	c #F1F1F1",
"2 	c #D0D0D0",
"3 	c #8D8D8D",
"4 	c #737373",
"5 	c #838383",
"6 	c #E9E9E9",
"7 	c #898989",
"8 	c #919191",
"9 	c #7C7C7C",
"0 	c #878787",
"a 	c #DFDFDF",
"b 	c #828282",
"c 	c #ABABAB",
"d 	c #B4B4B4",
"e 	c #848484",
"f 	c #AEAEAE",
"g 	c #888888",
"h 	c #9F9F9F",
"i 	c #D4D4D4",
"j 	c #989898",
"k 	c #B2B2B2",
"l 	c #DADADA",
"m 	c #7F7F7F",
"n 	c #979797",
"o 	c #8C8C8C",
"p 	c #6F6F6F",
"q 	c #818181",
"r 	c #656565",
"s 	c #6C6C6C",
"t 	c #B7B7B7",
"u 	c #9D9D9D",
"v 	c #757575",
"w 	c #7E7E7E",
"x 	c #787878",
"y 	c #6D6D6D",
"z 	c #CACACA",
"A 	c #BEBEBE",
"B 	c #555555",
"C 	c #AAAAAA",
"D 	c #C2C2C2",
"E 	c #C0C0C0",
"F 	c #868686",
"G 	c #808080",
"H 	c #5B5B5B",
"I 	c #4C4C4C",
"J 	c #636363",
"K 	c #535353",
"L 	c #606060",
"M 	c #707070",
"N 	c #A4A4A4",
"O 	c #C5C5C5",
"P 	c #D1D1D1",
"Q 	c #BDBDBD",
"R 	c #B8B8B8",
"S 	c #777777",
"T 	c #6A6A6A",
"U 	c #D6D6D6",
"V 	c #C7C7C7",
"W 	c #BABABA",
"X 	c #A0A0A0",
"Y 	c #6B6B6B",
"Z 	c #727272",
"` 	c #696969",
" .	c #676767",
"..	c #C6C6C6",
"+.	c #575757",
"@.	c #CCCCCC",
"#.	c #BBBBBB",
"$.	c #939393",
"%.	c #646464",
"&.	c #4F4F4F",
"*.	c #7B7B7B",
"=.	c #5D5D5D",
"-.	c #616161",
";.	c #5A5A5A",
">.	c #525252",
",.	c #717171",
"'.	c #595959",
").	c #5E5E5E",
"!.	c #4E4E4E",
"~.	c #585858",
"{.	c #474747",
"].	c #6E6E6E",
"^.	c #515151",
"/.	c #545454",
"(.	c #4D4D4D",
"_.	c #444444",
":.	c #393939",
"<.	c #272727",
"[.	c #000000",
"}.	c #2E2E2E",
"|.	c #767676",
"                                                                                                ",
"                                                                                                ",
"                                                                                                ",
"        . + @ @ # $ $ $ $ $ $ # # @ @ @ @ @ @ @ @ @ @ @ @ @ # # $ $ $ $ $ $ $ $ $ $ @ %         ",
"      & + * = - - % ; ; ; = * ; > % % % % % % % % % % % % = = = * * * * * * % > = = ; , '       ",
"      ) % = = - - - % = = ; ; * = = ! - - % % - - % % % % = = ; * * * * * % ; = = = - - ~       ",
"      , ; % % = - - ! ! = = = ; > = - - % - % % - - % { % = = ; * * * * * % = % % - - - ]       ",
"      ) ; % % % = - ! ! ; ! = ; > = ! - { % { % - - - { % = = * * * * * ; % % % - ^ ^ ^ ;       ",
"      ) % % % % % ; % - ! ! = ; * / % - { - - - - { - - % = / * * ; * / % % % { ^ ^ ^ & ;       ",
"      * % % ; % % % % - ! ! ! ! % % % { - - - - { - - { % = / * ; * / % % % { { ^ ^ & & /       ",
"      ; - % ! = = % % - ! ( ( ! ~ _ : { < ^ { { { % { - % = ; ; * / % % % { { & & & & & /       ",
"      ; - - - - = = ! = ! ! [ } | 1 1 1 2 < & { { { { % % / ; ; * % % % { { ^ & & & 3 3 %       ",
"      / ^ { - - = = = ! ! ! ' 4 5 | 6 1 1 6 ! 7 8 8 ^ % % / / / % % - { ^ 8 8 3 7 7 7 7 -       ",
"      % & ^ & - - - ! ! ! ! ! [ 9 0 | 6 6 6 a 5 3 8 8 % % / / % % - { & & & & 3 7 7 7 7 -       ",
"      % & & & - - ! - ! ! ! ! ( 5 b c 6 6 6 | d 5 & 8 { % / % % { & & & & 3 3 3 7 7 e 0 8       ",
"      ! & & & & - [ & f ! ! ! ! g h | | | 6 | i b g 8 % = / - { & & 3 3 3 3 7 7 e 0 0 e {       ",
"      - 7 & & & { g j 6 k & % 3 h | | | | | | l m 5 { - % - { & ' ' 3 3 ' ' ' e 0 0 ' 3 -       ",
"      { 0 7 7 7 & e n | | f e > | | | | | | | i 5 5 { % { 8 3 ' ' g g g ' g 0 3 3 3 7 7 -       ",
"      8 0 7 7 7 3 5 o | | | _ a l | | l | l l # p q { - 8 g g e g g e g ' 3 3 3 7 & & & {       ",
"      ' m 0 0 0 3 e p | a | | l l | l l l l l c r e % 3 g e e e e e ' 3 3 8 8 8 - 0 0 0 ^       ",
"      e 9 9 9 9 e e s t a l l l l l l l i l + u m 5 & e e 5 e e ' 3 & 8 8 3 7 3 q 0 0 [ -       ",
"      5 v 9 9 9 9 9 4 r # l l l l l l l i # u ^ k % 0 w x e g 3 3 3 3 ' ' ' ' 0 0 q 0 0 &       ",
"      9 v 9 9 9 9 9 9 r y f i l i i i z c u ^ / z ) A f 0 5 ' ' ' ' ' ' ' 0 0 e 0 0 m 0 0       ",
"      q v 9 9 9 9 9 9 x r B o / f c / u ^ ^ k z C D ) E f F G g 0 g e ' e 0 e e m m m [ 0       ",
"      q m m m m 5 e e e 9 v H I J 4 J K L ^ z , A + h h E f F [ 5 e e e e e e m m m m 9 q       ",
"      q 9 9 m m m 5 q 0 g e 9 9 4 M s s H 4 N _ $ c k c > O C F 9 5 e e e q e e m 9 m 9 q       ",
"      9 9 m m e 0 0 5 9 e m 9 9 9 v v v v x k P Q Q R R k c O * b s v 9 9 9 9 9 9 9 9 S m       ",
"      0 m m 9 9 9 9 9 9 9 M 9 M v v 9 e 5 T * U V D Q Q W W k z X b Y 4 M v v M M S v S 9       ",
"      9 S S S S 9 s s 9 M Z Z Z 4 9 e e 9 r T * P V $ D Q Q D Q z X w s s 9 M s M s ` ` s       ",
"      v M  . .s s s M M M M Z v 9 e e 9 9 Y H p X z V $ $ $ $ $ _ ..u w ` M s s ` ` `  .s       ",
"      r r r  . .Y Y s s s M 9 9 e 9 9 v M s Y L T X ..$ $ $ _ _ _ E $ ! b s s  . . . .r r       ",
"      L r r  . .Y Y Y s Z 9 9 q 5 9 9 v s Y M s +.T u _ _ _ _ $ @.#.....$.y 9 M s r r r r       ",
"      L L L r r r r s v v 9 e m x S v s s ` s v %.+.T ! Q + _ ..e &.e E > *.M v Z M  .L L       ",
"      L =.L r r r M v S m m 9 v v v Z ` r r M M r %.K -.! + + , J %.;.C X 5 ` 4 M M M s  .      ",
"      L =.L L  .M M v m m [ v v v Z ` ` r r M s r r L >. .! + R 7 ,.7 ) { ,.` Z M M ` s M       ",
"      =.'.L  .s M v 9 9 [ Z Z Z Z ` L L r r v Y %.r %.).!. .( ) ) > ) X & I '.M M ` s `  .      ",
"      =.L  . . .M [ [ [ M M M M M %.L L %.L M r L %.%.L =.!.-.< n ! { ( H >.'.L L `  . . .      ",
"      r r r  .S S S S s ` s ` ` ` =.'.L =.r s L =.=.=.=.).~.!.{.].9 ].^.~.L '.'.'.=.r  . .      ",
"      r r  .S S S M ` ` ` ` ` ` =.'.'.~.'.r ` L =.=.=.=.=.=.~.K ~.+.~.` M  .L '.~./.~.L r       ",
"      r ` M M M M  .r r  .r ` L ~.~.~.~.~.r  .=./.H /./././.~.~.=.r r ` Z M r '././.^./.L       ",
"      s M M M M L L L L L  .L /././././.^.L r /./././././././././.L r L  .M  .L '.^.^.^.^.      ",
"      M  .M ` L L L L L L L /.^.^.^.^.^./.L L /.^.^.^.(.^.^.^.^.^.~.L L L  .M  .=.'.(.^.^.      ",
"      L  . .L =.'.L L L '.'.(.(.(.(.(.(./.=.=.^.(.(.(.(.(.(.(.(.(.(.'.L '.L  .` L L /.(._.      ",
"      :.M L '.'.'.'.'.'.'.^.(.(.(.(.(.(./.'.=.(.(.(.(.(.(.(.(.(.(.(.^.'.'.'.=.`  .=.'.'.<.      ",
"      [.}.K L L r r ` `  .'.%.%.%.%.r r M |.x s r s r r ` r %.%.L =.).r ` ` r r M M /.}.[.      ",
"          [.[.[.[.[.[.[.[.[.[.[.[.[.[.[.[.[.[.[.[.[.[.[.[.[.[.[.[.[.[.[.[.[.[.[.[.[.[.          ",
"                                                                                                ",
"                                                                                                "};
