/* XPM */
static char * menu55_xpm[] = {
"48 48 197 2",
"  	c None",
". 	c #D3E2F5",
"+ 	c #E7F8FF",
"@ 	c #F0FEFF",
"# 	c #EEFFFF",
"$ 	c #D4E3F5",
"% 	c #CDD9EA",
"& 	c #D2EBFF",
"* 	c #CEE6FF",
"= 	c #CAE2FB",
"- 	c #CBE4FE",
"; 	c #D0E9FF",
"> 	c #D1E9FF",
", 	c #CDE4FE",
"' 	c #DDF3FF",
") 	c #CAD6E5",
"! 	c #DAF0FF",
"~ 	c #CDE2FB",
"{ 	c #DBECFD",
"] 	c #C9DFF8",
"^ 	c #DAEDFF",
"/ 	c #C5DDF8",
"( 	c #D5E9FF",
"_ 	c #D2E8FF",
": 	c #D3E9FF",
"< 	c #C4DBF6",
"[ 	c #D2E7FE",
"} 	c #CDDEF1",
"| 	c #F7FBFF",
"1 	c #E9F4FF",
"2 	c #CAD9EA",
"3 	c #B6CAE4",
"4 	c #D2D9E1",
"5 	c #FFFFFF",
"6 	c #C3D9F2",
"7 	c #C1D7F0",
"8 	c #B5C5D8",
"9 	c #C8D0DA",
"0 	c #D5E2EF",
"a 	c #C0D7F1",
"b 	c #C7DCF6",
"c 	c #CDE2F8",
"d 	c #B7CDE7",
"e 	c #CDD3DA",
"f 	c #C6DAF3",
"g 	c #BDD2E8",
"h 	c #C0D1E4",
"i 	c #ECECEC",
"j 	c #F0F4F9",
"k 	c #BDD3EC",
"l 	c #BED5EF",
"m 	c #E4EFFE",
"n 	c #C1D5EC",
"o 	c #DAE4F2",
"p 	c #D7DFEA",
"q 	c #E9F2FC",
"r 	c #C9CDD2",
"s 	c #D7DEE8",
"t 	c #E8EFF9",
"u 	c #DCE7F5",
"v 	c #CED7E1",
"w 	c #FDFDFD",
"x 	c #B8C2CD",
"y 	c #BBD0EA",
"z 	c #B9CFE9",
"A 	c #B6C3D2",
"B 	c #B0BBC7",
"C 	c #B0C1D5",
"D 	c #F3F5F8",
"E 	c #F6F6F6",
"F 	c #E2E2E2",
"G 	c #B2C8E0",
"H 	c #B4C6DC",
"I 	c #DADADA",
"J 	c #F1F1F1",
"K 	c #DCE2E9",
"L 	c #D9D2B6",
"M 	c #CACDC5",
"N 	c #B6CAE0",
"O 	c #ABBCD0",
"P 	c #B6C1CA",
"Q 	c #EEEEEE",
"R 	c #E5E5E5",
"S 	c #FFEBA1",
"T 	c #FFF7AA",
"U 	c #FFEB97",
"V 	c #DFD2AE",
"W 	c #A5B0BC",
"X 	c #D3D6D9",
"Y 	c #FFE99F",
"Z 	c #FFFBAB",
"` 	c #FFE78A",
" .	c #FFF8A1",
"..	c #DED1AE",
"+.	c #BCD0E7",
"@.	c #A3B5C7",
"#.	c #9EA9B4",
"$.	c #B1B9C3",
"%.	c #BEC4CA",
"&.	c #A2AFBD",
"*.	c #B3B7BB",
"=.	c #FFEDA4",
"-.	c #FFF18F",
";.	c #FFDC73",
">.	c #B0C5DB",
",.	c #FFE49A",
"'.	c #FFF8A4",
").	c #FFFB9A",
"!.	c #FFE67D",
"~.	c #FFEC82",
"{.	c #FFDE76",
"].	c #FFFEA1",
"^.	c #FFE890",
"/.	c #D1C8AB",
"(.	c #FFEE97",
"_.	c #FFFFA6",
":.	c #FFF686",
"<.	c #FFF186",
"[.	c #FFE58A",
"}.	c #DCCFAB",
"|.	c #ACC2DA",
"1.	c #B3CAE4",
"2.	c #BEBEB3",
"3.	c #FFFFAC",
"4.	c #FFFF8D",
"5.	c #FFFB8B",
"6.	c #FFF689",
"7.	c #FFF387",
"8.	c #FFFF9E",
"9.	c #FFE083",
"0.	c #ABC0D7",
"a.	c #ADC4DE",
"b.	c #B0C5DE",
"c.	c #CEBD97",
"d.	c #FFFC8E",
"e.	c #DACAA6",
"f.	c #AABFD9",
"g.	c #A8BED8",
"h.	c #D0C099",
"i.	c #FFF78F",
"j.	c #FFFE97",
"k.	c #FFDD7E",
"l.	c #ABBFD5",
"m.	c #A6BCD5",
"n.	c #A5B8CF",
"o.	c #FFF994",
"p.	c #FFDA7C",
"q.	c #A3B9D2",
"r.	c #A1B1C4",
"s.	c #FFFFB1",
"t.	c #FFF49F",
"u.	c #FFFEA9",
"v.	c #FFD57A",
"w.	c #A4B9D2",
"x.	c #A8BBCF",
"y.	c #F9CC83",
"z.	c #ABA9A2",
"A.	c #FFDF82",
"B.	c #E1C79B",
"C.	c #A1B6CF",
"D.	c #9CAFC4",
"E.	c #CAB593",
"F.	c #FFEC94",
"G.	c #B8B9B5",
"H.	c #B1B1AC",
"I.	c #FFE68C",
"J.	c #FFDC7B",
"K.	c #F6CB87",
"L.	c #9CAEC3",
"M.	c #D0B892",
"N.	c #FFF197",
"O.	c #FCCF88",
"P.	c #C0C3C3",
"Q.	c #FFD474",
"R.	c #DAC094",
"S.	c #9EB4CD",
"T.	c #A5B6CA",
"U.	c #9AABBE",
"V.	c #FFD579",
"W.	c #FFD175",
"X.	c #FFD676",
"Y.	c #FFD878",
"Z.	c #BDB19E",
"`.	c #9EB3CA",
" +	c #A1A5A9",
".+	c #D9BD91",
"++	c #F3C683",
"@+	c #A1ADB7",
"#+	c #9BB1C9",
"$+	c #99AEC6",
"%+	c #95ABC3",
"&+	c #92A4B8",
"*+	c #909CA9",
"=+	c #848E99",
"-+	c #707070",
";+	c #8A94A1",
">+	c #B8C8DA",
"                                                                                                ",
"                                                                                                ",
"                                                                                                ",
"        . + @ @ # # # # # # # # # @ @ @ @ @ @ @ @ @ @ @ @ @ # # # # # # # # # # # # @ $         ",
"      % + & * = = - ; ; ; * & ; > , - - - - - - - - - , , * * * & & & & & & - > * * ; ' )       ",
"      ! - * * = = = - * * ; ; & * * ~ = = - - = = - - - - * * ; & & & & & - ; * * * = = {       ",
"      ' ; - - * = = ~ ~ * * * ; > * = = - = - - = = - ] , * * ; & & & & & - * - - = = = ^       ",
"      ! ; - - - * = ~ ~ ; ~ * ; > * ~ = ] - ] $ = = = ] , * * & & & & & ; - - - = / / / (       ",
"      ! - - - - - ; - = ~ ~ * ; & _ $ = ] = = = = ] = = $ * _ & & : & _ - - - ] / / / < (       ",
"      & - - ; - - - - = ~ ~ ~ ~ - , - ] = = = = ] = = ] - * _ & : & _ , , , ] ] / / < < [       ",
"      : = - ~ * * - - = ~ } } ~ { | 1 ] 2 / ] ] ] $ ] = , * : : & _ , - , ] ] < < < < < [       ",
"      ( = = = = * * ~ * ~ ~ 3 4 5 5 5 5 5 2 < ] ] ] ] - , _ : : & , , $ ] ] / < < < 6 6 ,       ",
"      [ / ] = = * * * ~ ~ ~ 7 8 9 5 5 5 5 5 0 a b b / - , _ _ _ - - = ] / b b 6 a a a a c       ",
"      , < / < = = = ~ ~ ~ ~ ~ 3 d e 5 5 5 5 5 9 6 b b $ , _ _ - $ = ] f f f < 6 a a a a c       ",
"      , < < < = = ~ = ~ ~ ~ ~ } g h i 5 5 5 5 j g f b ] , [ , - ] f f f f 6 6 6 a a k l b       ",
"      ~ < < < < = 3 % m ~ ~ ~ ~ n o 5 5 5 5 5 5 h n b , * [ = ] f f 6 6 6 6 a a k l l k ]       ",
"      = a < < < ] n p 5 q f $ 6 o 5 5 5 5 5 5 5 r g ] = , c ] f 7 7 6 6 7 7 7 k l l 7 6 =       ",
"      ] l a a a f k s 5 5 t k u 5 5 5 5 5 5 5 5 9 g ] - ] b 6 7 7 n n n 7 n l 6 6 6 a a =       ",
"      b l a a a 6 g v 5 5 5 | 5 5 5 5 5 5 5 5 w x y ] = b n n k n n k n 7 6 6 6 a < < < ]       ",
"      7 z l l l 6 k A 5 5 5 5 5 5 5 5 5 5 5 5 i B k - 6 n k k k k k 7 6 6 b b b = l l l /       ",
"      k d d d d k k C D 5 5 5 5 5 5 5 5 5 5 E F r g f k k g k k 7 6 f b b 6 a 6 y l l 3 =       ",
"      g G d d d d d H B w 5 5 5 5 5 5 5 5 w F I J K L M N k n 6 6 6 6 7 7 7 7 l l y l l <       ",
"      d G d d d d d d O P Q 5 5 5 5 5 5 i F I R 5 S T U V g 7 7 7 7 7 7 7 l l k l l z l l       ",
"      y G d d d d d d N B W X R Q i R F I I J 5 Y Z `  .U ..+.n l n k 7 k l k k z z z 3 l       ",
"      y z z z z g k k k d G @.#.$.%.$.&.*.I 5 =.T -.;.;. .U ..3 g k k k k k k z z z z d y       ",
"      y d d z z z g y l n k d d H >.C C @.%.,.'.).!.~.!.{.].^...d g k k k y k k z d z d y       ",
"      d d z z k l l g d k z d d d G G G G /.(._.:.:.<.<.~.!.].[.}.|.G d d d d d d d d 1.z       ",
"      l z z d d d d d d d >.d >.G G d k g 2.[.3.4.5.6.6.7.7.~.8.9.}.0.H >.G G >.a.1.G 1.d       ",
"      d 1.1.1.1.d |.|.d >.b.b.b.H d k k d B c.[._.4.d.5.6.6.5.6.8.9.e.|.|.d a.|.a.|.f.f.|.      ",
"      G a.g.g.|.|.|.a.a.>.>.b.G d k k d d 0.@.h.9.8.4.d.d.d.d.d.i.j.k.e.l.a.|.|.f.f.f.g.|.      ",
"      m.m.m.g.g.0.0.|.|.|.>.d d k d d G >.|.0.n.c.9.j.d.d.d.i.i.i.o.d.p.}.|.|.g.g.g.g.m.m.      ",
"      q.m.m.g.g.0.0.0.|.b.d d y g d d G |.0.>.|.r.c.k.i.i.i.i.).s.t.u.j.v.P d a.|.m.m.m.m.      ",
"      q.q.w.m.m.m.m.|.G G d k z N 1.G |.|.l.|.G x.r.c.p.6.-.i.u.y.z.y. .A.B.a.G b.a.g.q.q.      ",
"      q.C.q.m.m.m.a.G 1.z z d G G G b.l.m.m.>.>.m.x.D.E.p.-.-.F.G.x.H.I.J.K.f.H a.a.a.|.g.      ",
"      q.C.q.q.g.a.a.G z z 3 G G G b.l.l.m.m.>.|.m.m.n.L.M.p.-.N.O.P.O.` Q.R.l.b.a.a.f.|.a.      ",
"      C.S.q.g.|.a.G d d 3 b.b.b.b.f.w.w.m.m.G 0.x.m.x.T.U.M.V.` ` A.` J.W.#.S.>.>.f.|.f.g.      ",
"      C.q.g.g.g.a.3 3 3 a.>.>.>.>.x.n.w.x.w.a.m.q.x.x.n.C.U.E.W.X.Y.Q.V.Z.L.S.n.w.f.g.g.g.      ",
"      m.m.m.g.1.1.1.1.|.f.|.f.f.l.C.S.n.C.m.|.w.C.C.C.C.T.`.U. +.+++.+@+`.n.S.S.S.C.m.g.g.      ",
"      m.m.g.1.1.1.a.f.f.f.f.f.f.C.S.S.`.S.m.f.n.C.C.C.C.C.C.`.D.`.r.`.f.>.g.w.S.`.#+`.q.m.      ",
"      m.f.a.a.a.a.g.m.m.g.m.f.n.`.`.`.`.`.m.g.C.#+@.#+#+#+#+`.`.C.O m.f.b.a.m.S.#+#+$+#+q.      ",
"      |.a.a.a.a.w.w.w.w.w.g.w.#+#+#+#+#+$+w.m.#+#+#+#+#+#+#+#+#+#+w.m.w.g.a.g.q.S.$+$+$+$+      ",
"      a.g.a.f.w.q.w.q.w.w.w.#+$+$+$+$+$+#+w.w.#+$+$+$+%+$+$+$+$+$+`.w.q.q.g.a.g.C.S.%+$+$+      ",
"      q.g.g.q.C.S.q.q.q.S.S.%+%+%+%+%+%+#+C.C.$+%+%+%+%+%+%+%+%+%+%+S.q.S.q.g.f.q.q.#+%+&+      ",
"      *+a.q.S.S.S.S.S.S.S.$+%+%+%+%+%+%+#+S.C.%+%+%+%+%+%+%+%+%+%+%+$+S.S.S.C.f.g.C.S.S.=+      ",
"      -+;+D.w.w.m.m.l.l.g.S.x.x.x.x.O O >.>+N C O C O O l.O x.x.n.C.T.O f.l.m.m.a.a.#+;+-+      ",
"          -+-+-+-+-+-+-+-+-+-+-+-+-+-+-+-+-+-+-+-+-+-+-+-+-+-+-+-+-+-+-+-+-+-+-+-+-+-+          ",
"                                                                                                ",
"                                                                                                "};
